ISO-10303-21;
HEADER;
/*Generated by software containing ST-Developer
 * from STEP Tools, Inc. (www.steptools.com) 
 */
/*OPTION: using custom renumber hook */
/*description */
/*implementation_level */
FILE_DESCRIPTION(('STEP AP242 Edition 2','STEP AP242 Edition 2''CAx-IF Rec.Pracs.---Representation and Presentation of Product Manufa
cturing Information (PMI)---4.0---2014-10-13','STEP AP242 Edition 2''CAx-IF Rec.Pracs.---Representation and Presentation of Product Manufa
cturing Information (PMI)---4.0---2014-10-13''CAx-IF Rec.Pracs.---3D Tessellated Geometry---0.4---2014-09-14','STEP AP242 Edition 2''CAx-IF Rec.Pracs.---Representation and Presentation of Product Manufa
cturing Information (PMI)---4.0---2014-10-13''CAx-IF Rec.Pracs.---3D Tessellated Geometry---0.4---2014-09-14''2;1','STEP AP242 Edition 2''CAx-IF Rec.Pracs.---Representation and Presentation of Product Manufa
cturing Information (PMI)---4.0---2014-10-13''CAx-IF Rec.Pracs.---3D Tessellated Geometry---0.4---2014-09-14''2;1''CAx-IF Rec.Pracs.---User Defined Attributes---1.5---2016-08-15'),'2;1');
/*name */
/*time_stamp */
/*author */
/*organization */
/*preprocessor_version */
/*originating_system */
/*authorisation */
FILE_NAME('/vol/tmp/translate-1566528349598081707/Shaft - Arm.step','2026-03-24T04:35:42',(''),(''),'ST-DEVELOPER v20','ONSHAPE BY PTC INC, 1.212','  ');
FILE_SCHEMA(('AP242_MANAGED_MODEL_BASED_3D_ENGINEERING_MIM_LF { 1 0 10303 442 3 1 4 }'));
ENDSEC;
DATA;
#10=SHAPE_REPRESENTATION_RELATIONSHIP('','',#211,#11);
#11=ADVANCED_BREP_SHAPE_REPRESENTATION('',(#209),#351);
#12=CIRCLE('',#215,0.0086);
#13=CIRCLE('',#216,0.0086);
#14=CIRCLE('',#219,0.0005);
#15=CIRCLE('',#220,0.0005);
#16=CIRCLE('',#223,0.0086);
#17=CIRCLE('',#224,0.0086);
#18=CIRCLE('',#227,0.0075);
#19=CIRCLE('',#228,0.0075);
#20=CIRCLE('',#230,0.0056);
#21=CIRCLE('',#231,0.0056);
#22=CYLINDRICAL_SURFACE('',#214,0.0086);
#23=CYLINDRICAL_SURFACE('',#218,0.0005);
#24=CYLINDRICAL_SURFACE('',#222,0.0086);
#25=CYLINDRICAL_SURFACE('',#226,0.0075);
#26=CYLINDRICAL_SURFACE('',#229,0.0056);
#27=ORIENTED_EDGE('',*,*,#79,.T.);
#28=ORIENTED_EDGE('',*,*,#80,.F.);
#29=ORIENTED_EDGE('',*,*,#81,.F.);
#30=ORIENTED_EDGE('',*,*,#82,.T.);
#31=ORIENTED_EDGE('',*,*,#83,.F.);
#32=ORIENTED_EDGE('',*,*,#82,.F.);
#33=ORIENTED_EDGE('',*,*,#84,.T.);
#34=ORIENTED_EDGE('',*,*,#85,.T.);
#35=ORIENTED_EDGE('',*,*,#86,.T.);
#36=ORIENTED_EDGE('',*,*,#85,.F.);
#37=ORIENTED_EDGE('',*,*,#87,.F.);
#38=ORIENTED_EDGE('',*,*,#88,.T.);
#39=ORIENTED_EDGE('',*,*,#89,.F.);
#40=ORIENTED_EDGE('',*,*,#88,.F.);
#41=ORIENTED_EDGE('',*,*,#90,.T.);
#42=ORIENTED_EDGE('',*,*,#91,.T.);
#43=ORIENTED_EDGE('',*,*,#92,.T.);
#44=ORIENTED_EDGE('',*,*,#91,.F.);
#45=ORIENTED_EDGE('',*,*,#93,.F.);
#46=ORIENTED_EDGE('',*,*,#94,.T.);
#47=ORIENTED_EDGE('',*,*,#95,.F.);
#48=ORIENTED_EDGE('',*,*,#94,.F.);
#49=ORIENTED_EDGE('',*,*,#96,.T.);
#50=ORIENTED_EDGE('',*,*,#97,.T.);
#51=ORIENTED_EDGE('',*,*,#98,.T.);
#52=ORIENTED_EDGE('',*,*,#97,.F.);
#53=ORIENTED_EDGE('',*,*,#99,.F.);
#54=ORIENTED_EDGE('',*,*,#100,.T.);
#55=ORIENTED_EDGE('',*,*,#101,.F.);
#56=ORIENTED_EDGE('',*,*,#100,.F.);
#57=ORIENTED_EDGE('',*,*,#102,.T.);
#58=ORIENTED_EDGE('',*,*,#80,.T.);
#59=ORIENTED_EDGE('',*,*,#103,.F.);
#60=ORIENTED_EDGE('',*,*,#104,.T.);
#61=ORIENTED_EDGE('',*,*,#81,.T.);
#62=ORIENTED_EDGE('',*,*,#102,.F.);
#63=ORIENTED_EDGE('',*,*,#99,.T.);
#64=ORIENTED_EDGE('',*,*,#96,.F.);
#65=ORIENTED_EDGE('',*,*,#93,.T.);
#66=ORIENTED_EDGE('',*,*,#90,.F.);
#67=ORIENTED_EDGE('',*,*,#87,.T.);
#68=ORIENTED_EDGE('',*,*,#84,.F.);
#69=ORIENTED_EDGE('',*,*,#103,.T.);
#70=ORIENTED_EDGE('',*,*,#79,.F.);
#71=ORIENTED_EDGE('',*,*,#83,.T.);
#72=ORIENTED_EDGE('',*,*,#86,.F.);
#73=ORIENTED_EDGE('',*,*,#89,.T.);
#74=ORIENTED_EDGE('',*,*,#92,.F.);
#75=ORIENTED_EDGE('',*,*,#95,.T.);
#76=ORIENTED_EDGE('',*,*,#98,.F.);
#77=ORIENTED_EDGE('',*,*,#101,.T.);
#78=ORIENTED_EDGE('',*,*,#104,.F.);
#79=EDGE_CURVE('',#105,#106,#123,.T.);
#80=EDGE_CURVE('',#107,#106,#124,.T.);
#81=EDGE_CURVE('',#108,#107,#125,.T.);
#82=EDGE_CURVE('',#108,#105,#126,.T.);
#83=EDGE_CURVE('',#105,#109,#12,.T.);
#84=EDGE_CURVE('',#108,#110,#13,.T.);
#85=EDGE_CURVE('',#110,#109,#127,.T.);
#86=EDGE_CURVE('',#111,#109,#128,.T.);
#87=EDGE_CURVE('',#112,#110,#129,.T.);
#88=EDGE_CURVE('',#112,#111,#130,.T.);
#89=EDGE_CURVE('',#111,#113,#14,.T.);
#90=EDGE_CURVE('',#112,#114,#15,.T.);
#91=EDGE_CURVE('',#114,#113,#131,.T.);
#92=EDGE_CURVE('',#115,#113,#132,.T.);
#93=EDGE_CURVE('',#116,#114,#133,.T.);
#94=EDGE_CURVE('',#116,#115,#134,.T.);
#95=EDGE_CURVE('',#115,#117,#16,.T.);
#96=EDGE_CURVE('',#116,#118,#17,.T.);
#97=EDGE_CURVE('',#118,#117,#135,.T.);
#98=EDGE_CURVE('',#119,#117,#136,.T.);
#99=EDGE_CURVE('',#120,#118,#137,.T.);
#100=EDGE_CURVE('',#120,#119,#138,.T.);
#101=EDGE_CURVE('',#119,#106,#18,.T.);
#102=EDGE_CURVE('',#120,#107,#19,.T.);
#103=EDGE_CURVE('',#121,#121,#20,.T.);
#104=EDGE_CURVE('',#122,#122,#21,.T.);
#105=VERTEX_POINT('',#297);
#106=VERTEX_POINT('',#298);
#107=VERTEX_POINT('',#300);
#108=VERTEX_POINT('',#302);
#109=VERTEX_POINT('',#306);
#110=VERTEX_POINT('',#308);
#111=VERTEX_POINT('',#312);
#112=VERTEX_POINT('',#314);
#113=VERTEX_POINT('',#318);
#114=VERTEX_POINT('',#320);
#115=VERTEX_POINT('',#324);
#116=VERTEX_POINT('',#326);
#117=VERTEX_POINT('',#330);
#118=VERTEX_POINT('',#332);
#119=VERTEX_POINT('',#336);
#120=VERTEX_POINT('',#338);
#121=VERTEX_POINT('',#345);
#122=VERTEX_POINT('',#347);
#123=LINE('',#296,#139);
#124=LINE('',#299,#140);
#125=LINE('',#301,#141);
#126=LINE('',#303,#142);
#127=LINE('',#309,#143);
#128=LINE('',#311,#144);
#129=LINE('',#313,#145);
#130=LINE('',#315,#146);
#131=LINE('',#321,#147);
#132=LINE('',#323,#148);
#133=LINE('',#325,#149);
#134=LINE('',#327,#150);
#135=LINE('',#333,#151);
#136=LINE('',#335,#152);
#137=LINE('',#337,#153);
#138=LINE('',#339,#154);
#139=VECTOR('',#238,1.);
#140=VECTOR('',#239,1.);
#141=VECTOR('',#240,1.);
#142=VECTOR('',#241,1.);
#143=VECTOR('',#248,1.);
#144=VECTOR('',#251,1.);
#145=VECTOR('',#252,1.);
#146=VECTOR('',#253,1.);
#147=VECTOR('',#260,1.);
#148=VECTOR('',#263,1.);
#149=VECTOR('',#264,1.);
#150=VECTOR('',#265,1.);
#151=VECTOR('',#272,1.);
#152=VECTOR('',#275,1.);
#153=VECTOR('',#276,1.);
#154=VECTOR('',#277,1.);
#155=EDGE_LOOP('',(#27,#28,#29,#30));
#156=EDGE_LOOP('',(#31,#32,#33,#34));
#157=EDGE_LOOP('',(#35,#36,#37,#38));
#158=EDGE_LOOP('',(#39,#40,#41,#42));
#159=EDGE_LOOP('',(#43,#44,#45,#46));
#160=EDGE_LOOP('',(#47,#48,#49,#50));
#161=EDGE_LOOP('',(#51,#52,#53,#54));
#162=EDGE_LOOP('',(#55,#56,#57,#58));
#163=EDGE_LOOP('',(#59));
#164=EDGE_LOOP('',(#60));
#165=EDGE_LOOP('',(#61,#62,#63,#64,#65,#66,#67,#68));
#166=EDGE_LOOP('',(#69));
#167=EDGE_LOOP('',(#70,#71,#72,#73,#74,#75,#76,#77));
#168=EDGE_LOOP('',(#78));
#169=FACE_BOUND('',#155,.T.);
#170=FACE_BOUND('',#156,.T.);
#171=FACE_BOUND('',#157,.T.);
#172=FACE_BOUND('',#158,.T.);
#173=FACE_BOUND('',#159,.T.);
#174=FACE_BOUND('',#160,.T.);
#175=FACE_BOUND('',#161,.T.);
#176=FACE_BOUND('',#162,.T.);
#177=FACE_BOUND('',#163,.T.);
#178=FACE_BOUND('',#164,.T.);
#179=FACE_BOUND('',#165,.T.);
#180=FACE_BOUND('',#166,.T.);
#181=FACE_BOUND('',#167,.T.);
#182=FACE_BOUND('',#168,.T.);
#183=PLANE('',#213);
#184=PLANE('',#217);
#185=PLANE('',#221);
#186=PLANE('',#225);
#187=PLANE('',#232);
#188=PLANE('',#233);
#189=ADVANCED_FACE('',(#169),#183,.F.);
#190=ADVANCED_FACE('',(#170),#22,.T.);
#191=ADVANCED_FACE('',(#171),#184,.F.);
#192=ADVANCED_FACE('',(#172),#23,.T.);
#193=ADVANCED_FACE('',(#173),#185,.F.);
#194=ADVANCED_FACE('',(#174),#24,.T.);
#195=ADVANCED_FACE('',(#175),#186,.F.);
#196=ADVANCED_FACE('',(#176),#25,.T.);
#197=ADVANCED_FACE('',(#177,#178),#26,.F.);
#198=ADVANCED_FACE('',(#179,#180),#187,.F.);
#199=ADVANCED_FACE('',(#181,#182),#188,.T.);
#200=CLOSED_SHELL('',(#189,#190,#191,#192,#193,#194,#195,#196,#197,#198,#199));
#201=STYLED_ITEM('',(#202),#209);
#202=PRESENTATION_STYLE_ASSIGNMENT((#203));
#203=SURFACE_STYLE_USAGE(.BOTH.,#204);
#204=SURFACE_SIDE_STYLE('',(#205));
#205=SURFACE_STYLE_FILL_AREA(#206);
#206=FILL_AREA_STYLE('',(#207));
#207=FILL_AREA_STYLE_COLOUR('',#208);
#208=COLOUR_RGB('',0.937254901960784,0.882352941176471,0.698039215686275);
#209=MANIFOLD_SOLID_BREP('Arm',#200);
#210=SHAPE_DEFINITION_REPRESENTATION(#356,#211);
#211=SHAPE_REPRESENTATION('Arm',(#212),#351);
#212=AXIS2_PLACEMENT_3D('',#294,#234,#235);
#213=AXIS2_PLACEMENT_3D('',#295,#236,#237);
#214=AXIS2_PLACEMENT_3D('',#304,#242,#243);
#215=AXIS2_PLACEMENT_3D('',#305,#244,#245);
#216=AXIS2_PLACEMENT_3D('',#307,#246,#247);
#217=AXIS2_PLACEMENT_3D('',#310,#249,#250);
#218=AXIS2_PLACEMENT_3D('',#316,#254,#255);
#219=AXIS2_PLACEMENT_3D('',#317,#256,#257);
#220=AXIS2_PLACEMENT_3D('',#319,#258,#259);
#221=AXIS2_PLACEMENT_3D('',#322,#261,#262);
#222=AXIS2_PLACEMENT_3D('',#328,#266,#267);
#223=AXIS2_PLACEMENT_3D('',#329,#268,#269);
#224=AXIS2_PLACEMENT_3D('',#331,#270,#271);
#225=AXIS2_PLACEMENT_3D('',#334,#273,#274);
#226=AXIS2_PLACEMENT_3D('',#340,#278,#279);
#227=AXIS2_PLACEMENT_3D('',#341,#280,#281);
#228=AXIS2_PLACEMENT_3D('',#342,#282,#283);
#229=AXIS2_PLACEMENT_3D('',#343,#284,#285);
#230=AXIS2_PLACEMENT_3D('',#344,#286,#287);
#231=AXIS2_PLACEMENT_3D('',#346,#288,#289);
#232=AXIS2_PLACEMENT_3D('',#348,#290,#291);
#233=AXIS2_PLACEMENT_3D('',#349,#292,#293);
#234=DIRECTION('',(0.,0.,1.));
#235=DIRECTION('',(1.,0.,0.));
#236=DIRECTION('',(-0.0417963645183198,0.999126150149745,0.));
#237=DIRECTION('',(-0.999126150149746,-0.0417963645183198,0.));
#238=DIRECTION('',(-0.999126150149746,-0.0417963645183198,0.));
#239=DIRECTION('',(0.,0.,1.));
#240=DIRECTION('',(-0.999126150149746,-0.0417963645183198,0.));
#241=DIRECTION('',(0.,0.,1.));
#242=DIRECTION('',(0.,0.,1.));
#243=DIRECTION('',(1.,0.,0.));
#244=DIRECTION('',(0.,0.,1.));
#245=DIRECTION('',(1.,0.,0.));
#246=DIRECTION('',(0.,0.,1.));
#247=DIRECTION('',(1.,0.,0.));
#248=DIRECTION('',(0.,0.,1.));
#249=DIRECTION('',(-0.0417963645183198,0.999126150149745,0.));
#250=DIRECTION('',(-0.999126150149746,-0.0417963645183198,0.));
#251=DIRECTION('',(-0.999126150149745,-0.0417963645183198,0.));
#252=DIRECTION('',(-0.999126150149745,-0.0417963645183198,0.));
#253=DIRECTION('',(0.,0.,1.));
#254=DIRECTION('',(0.,0.,1.));
#255=DIRECTION('',(1.,0.,0.));
#256=DIRECTION('',(0.,0.,1.));
#257=DIRECTION('',(1.,0.,0.));
#258=DIRECTION('',(0.,0.,1.));
#259=DIRECTION('',(1.,0.,0.));
#260=DIRECTION('',(0.,0.,1.));
#261=DIRECTION('',(-0.0417963645183198,-0.999126150149745,0.));
#262=DIRECTION('',(0.999126150149746,-0.0417963645183198,0.));
#263=DIRECTION('',(0.999126150149745,-0.0417963645183198,0.));
#264=DIRECTION('',(0.999126150149745,-0.0417963645183198,0.));
#265=DIRECTION('',(0.,0.,1.));
#266=DIRECTION('',(0.,0.,1.));
#267=DIRECTION('',(1.,0.,0.));
#268=DIRECTION('',(0.,0.,1.));
#269=DIRECTION('',(1.,0.,0.));
#270=DIRECTION('',(0.,0.,1.));
#271=DIRECTION('',(1.,0.,0.));
#272=DIRECTION('',(0.,0.,1.));
#273=DIRECTION('',(-0.0417963645183198,-0.999126150149745,0.));
#274=DIRECTION('',(0.999126150149746,-0.0417963645183198,0.));
#275=DIRECTION('',(0.999126150149745,-0.0417963645183198,0.));
#276=DIRECTION('',(0.999126150149745,-0.0417963645183198,0.));
#277=DIRECTION('',(0.,0.,1.));
#278=DIRECTION('',(0.,0.,1.));
#279=DIRECTION('',(1.,0.,0.));
#280=DIRECTION('',(0.,0.,1.));
#281=DIRECTION('',(1.,0.,0.));
#282=DIRECTION('',(0.,0.,1.));
#283=DIRECTION('',(1.,0.,0.));
#284=DIRECTION('',(0.,0.,1.));
#285=DIRECTION('',(1.,0.,0.));
#286=DIRECTION('',(0.,0.,1.));
#287=DIRECTION('',(1.,0.,0.));
#288=DIRECTION('',(0.,0.,1.));
#289=DIRECTION('',(1.,0.,0.));
#290=DIRECTION('',(0.,0.,1.));
#291=DIRECTION('',(1.,0.,0.));
#292=DIRECTION('',(0.,0.,1.));
#293=DIRECTION('',(1.,0.,0.));
#294=CARTESIAN_POINT('',(0.,0.,0.));
#295=CARTESIAN_POINT('',(-0.0234064269062781,-0.00336207790564498,0.0178));
#296=CARTESIAN_POINT('',(-0.0234064269062781,-0.00336207790564498,0.0208));
#297=CARTESIAN_POINT('',(-0.00815714258278076,-0.00272415581128997,0.0208));
#298=CARTESIAN_POINT('',(-0.0386557112297752,-0.004,0.0208));
#299=CARTESIAN_POINT('',(-0.0386557112297752,-0.004,0.0178));
#300=CARTESIAN_POINT('',(-0.0386557112297752,-0.004,0.0178));
#301=CARTESIAN_POINT('',(-0.0234064269062781,-0.00336207790564498,0.0178));
#302=CARTESIAN_POINT('',(-0.00815714258278076,-0.00272415581128997,0.0178));
#303=CARTESIAN_POINT('',(-0.00815714258278076,-0.00272415581128997,0.0178));
#304=CARTESIAN_POINT('',(-3.46944695195361E-18,8.67361737988404E-19,0.0178));
#305=CARTESIAN_POINT('',(-3.46944695195361E-18,8.67361737988404E-19,0.0208));
#306=CARTESIAN_POINT('',(0.00835616319512442,-0.00203335600828976,0.0208));
#307=CARTESIAN_POINT('',(-3.46944695195361E-18,8.67361737988404E-19,0.0178));
#308=CARTESIAN_POINT('',(0.00835616319512442,-0.00203335600828976,0.0178));
#309=CARTESIAN_POINT('',(0.00835616319512442,-0.00203335600828976,0.0178));
#310=CARTESIAN_POINT('',(0.0266885306886918,-0.00126645954168232,0.0178));
#311=CARTESIAN_POINT('',(0.0266885306886918,-0.00126645954168232,0.0208));
#312=CARTESIAN_POINT('',(0.0450208981822592,-0.000499563075074873,0.0208));
#313=CARTESIAN_POINT('',(0.0266885306886918,-0.00126645954168232,0.0178));
#314=CARTESIAN_POINT('',(0.0450208981822592,-0.000499563075074873,0.0178));
#315=CARTESIAN_POINT('',(0.0450208981822592,-0.000499563075074873,0.0178));
#316=CARTESIAN_POINT('',(0.045,-1.96240593219876E-17,0.0178));
#317=CARTESIAN_POINT('',(0.045,-1.96240593219876E-17,0.0208));
#318=CARTESIAN_POINT('',(0.0450208981822592,0.00049956307507487,0.0208));
#319=CARTESIAN_POINT('',(0.045,-1.96240593219876E-17,0.0178));
#320=CARTESIAN_POINT('',(0.0450208981822592,0.00049956307507487,0.0178));
#321=CARTESIAN_POINT('',(0.0450208981822592,0.00049956307507487,0.0178));
#322=CARTESIAN_POINT('',(0.0266885306886918,0.00126645954168231,0.0178));
#323=CARTESIAN_POINT('',(0.0266885306886918,0.00126645954168231,0.0208));
#324=CARTESIAN_POINT('',(0.00835616319512442,0.00203335600828976,0.0208));
#325=CARTESIAN_POINT('',(0.0266885306886918,0.00126645954168231,0.0178));
#326=CARTESIAN_POINT('',(0.00835616319512442,0.00203335600828976,0.0178));
#327=CARTESIAN_POINT('',(0.00835616319512442,0.00203335600828976,0.0178));
#328=CARTESIAN_POINT('',(9.54097911787244E-18,2.16840434497101E-19,0.0178));
#329=CARTESIAN_POINT('',(9.54097911787244E-18,2.16840434497101E-19,0.0208));
#330=CARTESIAN_POINT('',(-0.00815714258278076,0.00272415581128997,0.0208));
#331=CARTESIAN_POINT('',(9.54097911787244E-18,2.16840434497101E-19,0.0178));
#332=CARTESIAN_POINT('',(-0.00815714258278076,0.00272415581128997,0.0178));
#333=CARTESIAN_POINT('',(-0.00815714258278076,0.00272415581128997,0.0178));
#334=CARTESIAN_POINT('',(-0.0234064269062781,0.00336207790564498,0.0178));
#335=CARTESIAN_POINT('',(-0.0234064269062781,0.00336207790564498,0.0208));
#336=CARTESIAN_POINT('',(-0.0386557112297752,0.004,0.0208));
#337=CARTESIAN_POINT('',(-0.0234064269062781,0.00336207790564498,0.0178));
#338=CARTESIAN_POINT('',(-0.0386557112297752,0.004,0.0178));
#339=CARTESIAN_POINT('',(-0.0386557112297752,0.004,0.0178));
#340=CARTESIAN_POINT('',(-0.045,-2.94081546323429E-18,0.0178));
#341=CARTESIAN_POINT('',(-0.045,-2.94081546323429E-18,0.0208));
#342=CARTESIAN_POINT('',(-0.045,-2.94081546323429E-18,0.0178));
#343=CARTESIAN_POINT('',(0.,6.2456986756515E-19,0.0178));
#344=CARTESIAN_POINT('',(0.,6.2456986756515E-19,0.0178));
#345=CARTESIAN_POINT('',(0.0056,6.2456986756515E-19,0.0178));
#346=CARTESIAN_POINT('',(0.,6.2456986756515E-19,0.0208));
#347=CARTESIAN_POINT('',(0.0056,6.2456986756515E-19,0.0208));
#348=CARTESIAN_POINT('',(-0.0035,0.,0.0178));
#349=CARTESIAN_POINT('',(-0.0035,0.,0.0208));
#350=MECHANICAL_DESIGN_GEOMETRIC_PRESENTATION_REPRESENTATION('',(#201),#351);
#351=(
GEOMETRIC_REPRESENTATION_CONTEXT(3)
GLOBAL_UNCERTAINTY_ASSIGNED_CONTEXT((#352))
GLOBAL_UNIT_ASSIGNED_CONTEXT((#355,#354,#353))
REPRESENTATION_CONTEXT('Arm','TOP_LEVEL_ASSEMBLY_PART')
);
#352=UNCERTAINTY_MEASURE_WITH_UNIT(LENGTH_MEASURE(1.E-08),#355,'DISTANCE_ACCURACY_VALUE','Maximum Tolerance applied to model');
#353=(
NAMED_UNIT(*)
SI_UNIT($,.STERADIAN.)
SOLID_ANGLE_UNIT()
);
#354=(
NAMED_UNIT(*)
PLANE_ANGLE_UNIT()
SI_UNIT($,.RADIAN.)
);
#355=(
LENGTH_UNIT()
NAMED_UNIT(*)
SI_UNIT($,.METRE.)
);
#356=PRODUCT_DEFINITION_SHAPE('','',#357);
#357=PRODUCT_DEFINITION('','',#359,#358);
#358=PRODUCT_DEFINITION_CONTEXT('',#365,'design');
#359=PRODUCT_DEFINITION_FORMATION_WITH_SPECIFIED_SOURCE('','',#361,.NOT_KNOWN.);
#360=PRODUCT_RELATED_PRODUCT_CATEGORY('','',(#361));
#361=PRODUCT('Arm','Arm','Arm',(#363));
#362=PRODUCT_CATEGORY('','');
#363=PRODUCT_CONTEXT('',#365,'mechanical');
#364=APPLICATION_PROTOCOL_DEFINITION('international standard','ap242_managed_model_based_3d_engineering',2020,#365);
#365=APPLICATION_CONTEXT('managed model based 3d engineering');
ENDSEC;
END-ISO-10303-21;
